<?xml version="1.0" encoding="UTF-8"?>
<svg xmlns="http://www.w3.org/2000/svg" version="1.1" width="500" height="500" viewBox="0 0 500 500"><rect x="0" y="0" width="500" height="500" fill="#ffffff"/><g transform="scale(20)"><g transform="translate(0,0)"><g><g transform="translate(3.5,3.5)"><path fill-rule="evenodd" d="M-3.5 -3.5L-3.5 3.5L3.5 3.5L3.5 -3.5ZM-2.5 -2.5L-2.5 2.5L2.5 2.5L2.5 -2.5Z" fill="#000000"/><path fill-rule="evenodd" d="M-1.5 -1.5L-1.5 1.5L1.5 1.5L1.5 -1.5Z" fill="#000000"/></g></g><g><g transform="translate(21.5,3.5)"><g transform="rotate(90)"><path fill-rule="evenodd" d="M-3.5 -3.5L-3.5 3.5L3.5 3.5L3.5 -3.5ZM-2.5 -2.5L-2.5 2.5L2.5 2.5L2.5 -2.5Z" fill="#000000"/><path fill-rule="evenodd" d="M-1.5 -1.5L-1.5 1.5L1.5 1.5L1.5 -1.5Z" fill="#000000"/></g></g></g><g><g transform="translate(3.5,21.5)"><g transform="rotate(-90)"><path fill-rule="evenodd" d="M-3.5 -3.5L-3.5 3.5L3.5 3.5L3.5 -3.5ZM-2.5 -2.5L-2.5 2.5L2.5 2.5L2.5 -2.5Z" fill="#000000"/><path fill-rule="evenodd" d="M-1.5 -1.5L-1.5 1.5L1.5 1.5L1.5 -1.5Z" fill="#000000"/></g></g></g><path fill-rule="evenodd" d="M10 0L10 2L11 2L11 0ZM12 0L12 1L13 1L13 2L12 2L12 4L14 4L14 5L15 5L15 4L16 4L16 5L17 5L17 4L16 4L16 3L17 3L17 2L16 2L16 1L13 1L13 0ZM8 1L8 2L9 2L9 1ZM13 2L13 3L16 3L16 2ZM8 3L8 4L9 4L9 5L8 5L8 7L9 7L9 8L6 8L6 9L5 9L5 8L0 8L0 10L2 10L2 12L3 12L3 13L2 13L2 14L3 14L3 13L5 13L5 12L6 12L6 13L7 13L7 12L9 12L9 13L8 13L8 14L6 14L6 15L5 15L5 14L4 14L4 17L7 17L7 16L6 16L6 15L8 15L8 16L9 16L9 17L8 17L8 19L9 19L9 20L8 20L8 25L12 25L12 23L13 23L13 22L11 22L11 21L10 21L10 20L11 20L11 19L10 19L10 18L11 18L11 17L12 17L12 18L13 18L13 19L12 19L12 21L13 21L13 20L14 20L14 21L15 21L15 22L19 22L19 23L14 23L14 24L19 24L19 25L20 25L20 24L21 24L21 25L22 25L22 24L21 24L21 23L23 23L23 25L25 25L25 24L24 24L24 23L25 23L25 21L23 21L23 19L25 19L25 12L24 12L24 11L25 11L25 10L24 10L24 8L23 8L23 10L22 10L22 11L23 11L23 12L22 12L22 13L23 13L23 14L22 14L22 15L23 15L23 16L22 16L22 17L21 17L21 16L20 16L20 15L21 15L21 14L20 14L20 15L19 15L19 14L18 14L18 12L17 12L17 11L19 11L19 13L21 13L21 12L20 12L20 11L21 11L21 10L18 10L18 8L15 8L15 10L14 10L14 9L12 9L12 7L13 7L13 5L11 5L11 6L10 6L10 4L11 4L11 3ZM9 6L9 7L10 7L10 6ZM11 6L11 7L12 7L12 6ZM14 6L14 7L15 7L15 6ZM16 6L16 7L17 7L17 6ZM10 8L10 9L9 9L9 10L8 10L8 9L6 9L6 10L5 10L5 9L2 9L2 10L3 10L3 12L4 12L4 11L6 11L6 12L7 12L7 11L9 11L9 12L11 12L11 13L9 13L9 14L8 14L8 15L9 15L9 14L13 14L13 15L12 15L12 17L15 17L15 18L16 18L16 17L15 17L15 16L16 16L16 15L17 15L17 16L19 16L19 15L17 15L17 13L14 13L14 12L16 12L16 11L17 11L17 10L16 10L16 11L14 11L14 12L13 12L13 13L12 13L12 11L13 11L13 10L12 10L12 9L11 9L11 8ZM19 8L19 9L20 9L20 8ZM21 8L21 9L22 9L22 8ZM10 9L10 11L11 11L11 9ZM6 10L6 11L7 11L7 10ZM0 13L0 17L1 17L1 13ZM15 14L15 15L14 15L14 16L15 16L15 15L16 15L16 14ZM23 14L23 15L24 15L24 14ZM2 15L2 17L3 17L3 15ZM10 16L10 17L9 17L9 18L10 18L10 17L11 17L11 16ZM23 16L23 17L22 17L22 18L24 18L24 16ZM17 17L17 20L20 20L20 17ZM18 18L18 19L19 19L19 18ZM14 19L14 20L15 20L15 21L16 21L16 20L15 20L15 19ZM21 19L21 20L22 20L22 19ZM9 21L9 24L11 24L11 22L10 22L10 21ZM21 21L21 22L23 22L23 23L24 23L24 22L23 22L23 21ZM19 23L19 24L20 24L20 23Z" fill="#000000"/></g></g></svg>
